<mxfile host="app.diagrams.net" modified="2023-07-22T09:16:00.496Z" agent="Mozilla/5.0 (Windows NT 10.0; Win64; x64) AppleWebKit/537.36 (KHTML, like Gecko) Chrome/114.0.0.0 Safari/537.36" version="21.6.5" etag="ZLaDEwafZrt0gz4MXsbi" type="github">
  <diagram name="페이지-1" id="KOJUU7Jg7iE1d3swBxz0">
    <mxGraphModel>
      <root>
        <mxCell id="0" />
        <mxCell id="1" parent="0" />
      </root>
    </mxGraphModel>
  </diagram>
</mxfile>
